<svg xmlns="http://www.w3.org/2000/svg" viewBox="0 0 170.68 170.681">
  <defs>
    <style>
      .cls-1 {
        fill: none;
      }

      .cls-2, .cls-4 {
        fill: #fe7201;
      }

      .cls-3, .cls-4 {
        stroke: none;
      }
    </style>
  </defs>
  <g id="Groupe_3615" data-name="Groupe 3615" transform="translate(-893.297 -2400)">
    <g id="Tracé_2275" data-name="Tracé 2275" class="cls-1" transform="translate(893.297 2400)">
      <path class="cls-3" d="M85.34,0A85.34,85.34,0,1,1,0,85.34,85.34,85.34,0,0,1,85.34,0Z"/>
      <path class="cls-4" d="M 85.34030151367188 1.999984741210938 C 79.68446350097656 1.999984741210938 74.03277587890625 2.569671630859375 68.54221343994141 3.693191528320312 C 63.19220733642578 4.7879638671875 57.92977905273438 6.4215087890625 52.901123046875 8.5484619140625 C 47.96330261230469 10.63699340820312 43.20059967041016 13.22210693359375 38.74534606933594 16.23200988769531 C 34.3319091796875 19.21369934082031 30.181640625 22.63798522949219 26.40982055664062 26.40980529785156 C 22.63800048828125 30.18162536621094 19.21371459960938 34.33189392089844 16.23202514648438 38.74533081054688 C 13.22212219238281 43.20060729980469 10.63700866699219 47.96328735351562 8.548477172851562 52.90110778808594 C 6.421524047851562 57.92978668212891 4.787979125976562 63.19221496582031 3.693206787109375 68.54222106933594 C 2.569686889648438 74.03276062011719 2 79.68447113037109 2 85.34030914306641 C 2 90.99614715576172 2.569686889648438 96.64783477783203 3.693206787109375 102.1383972167969 C 4.787979125976562 107.4884033203125 6.421524047851562 112.7508316040039 8.548477172851562 117.7794952392578 C 10.63700866699219 122.7173080444336 13.22212219238281 127.4800109863281 16.23202514648438 131.9352722167969 C 19.21371459960938 136.3486938476562 22.63800048828125 140.4989624023438 26.40982055664062 144.2707824707031 C 30.181640625 148.0426025390625 34.3319091796875 151.4669036865234 38.74534606933594 154.4485778808594 C 43.20059967041016 157.45849609375 47.96330261230469 160.0436096191406 52.901123046875 162.1321258544922 C 57.92977905273438 164.2590789794922 63.19220733642578 165.8926239013672 68.54221343994141 166.9873962402344 C 74.03277587890625 168.1109161376953 79.68446350097656 168.6806030273438 85.34030151367188 168.6806030273438 C 90.99613952636719 168.6806030273438 96.6478271484375 168.1109161376953 102.1383895874023 166.9873962402344 C 107.4883880615234 165.8926239013672 112.7508239746094 164.2590789794922 117.7794799804688 162.1321258544922 C 122.7173004150391 160.0436096191406 127.4800109863281 157.45849609375 131.9352569580078 154.4485778808594 C 136.3486938476562 151.4669036865234 140.4989624023438 148.0426025390625 144.2707824707031 144.2707824707031 C 148.0426025390625 140.4989624023438 151.4668884277344 136.3486938476562 154.4485778808594 131.9352722167969 C 157.4584808349609 127.4800109863281 160.0435943603516 122.7173080444336 162.1321258544922 117.7794952392578 C 164.2590789794922 112.7508316040039 165.8926239013672 107.4884033203125 166.9873962402344 102.1383972167969 C 168.1109161376953 96.64783477783203 168.6806030273438 90.99614715576172 168.6806030273438 85.34030914306641 C 168.6806030273438 79.68447113037109 168.1109161376953 74.03276062011719 166.9873962402344 68.54222106933594 C 165.8926239013672 63.19221496582031 164.2590789794922 57.92978668212891 162.1321258544922 52.90110778808594 C 160.0435943603516 47.96328735351562 157.4584808349609 43.20060729980469 154.4485778808594 38.74533081054688 C 151.4668884277344 34.33189392089844 148.0426025390625 30.18162536621094 144.2707824707031 26.40980529785156 C 140.4989624023438 22.63798522949219 136.3486938476562 19.21369934082031 131.9352569580078 16.23200988769531 C 127.4800109863281 13.22210693359375 122.7173004150391 10.63699340820312 117.7794799804688 8.5484619140625 C 112.7508239746094 6.4215087890625 107.4883880615234 4.7879638671875 102.1383895874023 3.693191528320312 C 96.6478271484375 2.569671630859375 90.99613952636719 1.999984741210938 85.34030151367188 1.999984741210938 M 85.34030151367188 -1.52587890625e-05 C 132.4724426269531 -1.52587890625e-05 170.6806030273438 38.20814514160156 170.6806030273438 85.34030914306641 C 170.6806030273438 132.4724426269531 132.4724426269531 170.6806030273438 85.34030151367188 170.6806030273438 C 38.20816040039062 170.6806030273438 0 132.4724426269531 0 85.34030914306641 C 0 38.20814514160156 38.20816040039062 -1.52587890625e-05 85.34030151367188 -1.52587890625e-05 Z"/>
    </g>
    <g id="Groupe_3019" data-name="Groupe 3019" transform="translate(921.744 2414.223)">
      <g id="Groupe_3000" data-name="Groupe 3000" transform="translate(32.222 38.231)">
        <circle id="Ellipse_54" data-name="Ellipse 54" class="cls-2" cx="5.119" cy="5.119" r="5.119" transform="translate(0 7.24) rotate(-45)"/>
      </g>
      <g id="Groupe_3001" data-name="Groupe 3001" transform="translate(35.328 0)">
        <path id="Tracé_2235" data-name="Tracé 2235" class="cls-2" d="M79.333,38.417c2.207,0,4.133.845,4.133-9.769S81.54,0,79.333,0,75.2,18.035,75.2,28.649,77.126,38.417,79.333,38.417Z" transform="translate(-75.2 0)"/>
      </g>
      <g id="Groupe_3002" data-name="Groupe 3002" transform="translate(0 46.976)">
        <path id="Tracé_2236" data-name="Tracé 2236" class="cls-2" d="M33.24,102.079c-1.08-1.926-1.362-3.992-10.473,1.362C13.515,108.654-1.044,119.269.036,121.194s17.612-5.495,26.723-10.755C36.011,105.273,34.508,104,33.24,102.079Z" transform="translate(0.021 -100.024)"/>
      </g>
      <g id="Groupe_3003" data-name="Groupe 3003" transform="translate(44.795 47.078)">
        <path id="Tracé_2237" data-name="Tracé 2237" class="cls-2" d="M129.427,121.356c1.08-1.926-13.479-12.54-22.731-17.753s-9.346-3.288-10.473-1.362c-1.08,1.926-2.771,3.147,6.481,8.407C111.956,115.861,128.347,123.282,129.427,121.356Z" transform="translate(-95.358 -100.241)"/>
      </g>
      <g id="Groupe_3004" data-name="Groupe 3004" transform="translate(34.107 52.883)">
        <path id="Tracé_2238" data-name="Tracé 2238" class="cls-2" d="M79.081,112.6H76.874a1.513,1.513,0,0,0-1.5,1.5L72.6,184.785a11.2,11.2,0,0,0,10.708,0l-2.63-70.542A1.723,1.723,0,0,0,79.081,112.6Z" transform="translate(-72.6 -112.6)"/>
      </g>
      <g id="Groupe_3005" data-name="Groupe 3005" transform="translate(74.403 56.405)">
        <path id="Tracé_2239" data-name="Tracé 2239" class="cls-2" d="M198.884,120.1H181.836l-17.048,32.406,11.366.188L158.4,186.65l40.155-43.631H183.62Z" transform="translate(-158.4 -120.1)"/>
      </g>
    </g>
  </g>
</svg>
